<svg width="20" height="18" viewBox="0 0 20 18" fill="none" xmlns="http://www.w3.org/2000/svg">
<path d="M17.0789 0.927195C16.2691 0.477418 15.3404 0.21875 14.3495 0.21875C12.6012 0.21875 11.0355 1.02201 10.0017 2.28157C8.963 1.02201 7.39881 0.21875 5.64814 0.21875C4.65963 0.21875 3.73257 0.477418 2.921 0.927195C1.17976 1.89946 0 3.76876 0 5.917C0 6.53201 0.0992595 7.12183 0.27904 7.67363C1.24858 12.0677 10.0017 17.6094 10.0017 17.6094C10.0017 17.6094 18.749 12.0678 19.7199 7.67363C19.8997 7.12183 20 6.53121 20 5.917C20 3.76956 18.8202 1.90084 17.0789 0.927195Z" fill="#F05A28"/>
</svg>
